<?xml version="1.0" encoding="UTF-8" standalone="no"?>
<!-- Created with Inkscape (http://www.inkscape.org/) -->
<svg xmlns:inkscape="http://www.inkscape.org/namespaces/inkscape" xmlns:rdf="http://www.w3.org/1999/02/22-rdf-syntax-ns#" xmlns="http://www.w3.org/2000/svg" xmlns:xlink="http://www.w3.org/1999/xlink" xmlns:ns1="http://sozi.baierouge.fr" xmlns:cc="http://creativecommons.org/ns#" xmlns:sodipodi="http://sodipodi.sourceforge.net/DTD/sodipodi-0.dtd" xmlns:dc="http://purl.org/dc/elements/1.1/" id="svg2" xml:space="preserve" viewBox="0 0 146.06 182.09" version="1.1" inkscape:version="0.91 r13725">
  <defs id="defs6">
    <radialGradient id="radialGradient24" gradientUnits="userSpaceOnUse" cy="-109.94" cx="-72.809" gradientTransform="matrix(-.79688 -.07104 -.08096 .78192 .17606 144.15)" r="54.202">
      <stop id="stop26" style="stop-color:#2bb8a6" offset="0"/>
      <stop id="stop28" style="stop-color:#2daea3" offset=".2078"/>
      <stop id="stop32" style="stop-color:#32949b" offset=".54120"/>
      <stop id="stop34" style="stop-color:#3a6a8d" offset=".96080"/>
      <stop id="stop36" style="stop-color:#3b668c" offset="1"/>
    </radialGradient>
    <radialGradient id="radialGradient50" gradientUnits="userSpaceOnUse" cy="-65.769" cx="-42.228" gradientTransform="matrix(-.79896 .04112 .02424 .65872 -.32450 136.42)" r="173.03">
      <stop id="stop52" style="stop-color:#2bb8a6" offset="0"/>
      <stop id="stop54" style="stop-color:#2daea3" offset=".2078"/>
      <stop id="stop58" style="stop-color:#32949b" offset=".54120"/>
      <stop id="stop60" style="stop-color:#3a6a8d" offset=".96080"/>
      <stop id="stop62" style="stop-color:#3b668c" offset="1"/>
    </radialGradient>
    <radialGradient id="radialGradient76" gradientUnits="userSpaceOnUse" cy="58.717" cx="120.7" gradientTransform="matrix(.77736 .18896 -.22216 .91408 24.156 46.365)" r="39.889">
      <stop id="stop78" style="stop-color:#2bb8a6" offset="0"/>
      <stop id="stop80" style="stop-color:#2daea3" offset=".2078"/>
      <stop id="stop84" style="stop-color:#32949b" offset=".54120"/>
      <stop id="stop86" style="stop-color:#3a6a8d" offset=".96080"/>
      <stop id="stop88" style="stop-color:#3b668c" offset="1"/>
    </radialGradient>
    <clipPath id="clipPath96">
      <path id="path98" d="m62 114.67h47v19h-47v-19z" inkscape:connector-curvature="0"/>
    </clipPath>
    <mask id="mask100">
      <g id="g102">
        <g id="g104" clip-path="url(#clipPath96)">
          <path id="path106" style="fill:#000000;fill-opacity:.51170" d="m62 114.67h47v19h-47v-19z" inkscape:connector-curvature="0"/>
        </g>
      </g>
    </mask>
    <clipPath id="clipPath112">
      <path id="path114" d="m62 114.67h47v19h-47v-19z" inkscape:connector-curvature="0"/>
    </clipPath>
    <clipPath id="clipPath116">
      <path id="path118" d="m62 115h47v19h-47v-19z" inkscape:connector-curvature="0"/>
    </clipPath>
    <radialGradient id="radialGradient146" gradientUnits="userSpaceOnUse" cy="-21.546" cx="-15.049" gradientTransform="matrix(-.40776 -.68832 .60904 -.37272 27.843 128.66)" r="100.41">
      <stop id="stop148" style="stop-color:#38ada6" offset="0"/>
      <stop id="stop150" style="stop-color:#3fa3a3" offset=".25490"/>
      <stop id="stop152" style="stop-color:#518a99" offset=".68240"/>
      <stop id="stop154" style="stop-color:#627291" offset="1"/>
    </radialGradient>
    <radialGradient id="radialGradient168" gradientUnits="userSpaceOnUse" cy="-77.627" cx="96.091" gradientTransform="matrix(.4648 -.65112 .62976 .43624 99.961 214.91)" r="87.067">
      <stop id="stop170" style="stop-color:#38ada6" offset="0"/>
      <stop id="stop172" style="stop-color:#3fa3a3" offset=".25490"/>
      <stop id="stop174" style="stop-color:#518a99" offset=".68240"/>
      <stop id="stop176" style="stop-color:#627291" offset="1"/>
    </radialGradient>
    <clipPath id="clipPath184">
      <path id="path186" d="m64 94.67h37v31h-37v-31z" inkscape:connector-curvature="0"/>
    </clipPath>
    <mask id="mask188">
      <g id="g190">
        <g id="g192" clip-path="url(#clipPath184)">
          <path id="path194" style="fill:#000000;fill-opacity:.51170" d="m64 94.67h37v31h-37v-31z" inkscape:connector-curvature="0"/>
        </g>
      </g>
    </mask>
    <clipPath id="clipPath200">
      <path id="path202" d="m64 94.67h37v31h-37v-31z" inkscape:connector-curvature="0"/>
    </clipPath>
    <clipPath id="clipPath204">
      <path id="path206" d="m64 95h37v31h-37v-31z" inkscape:connector-curvature="0"/>
    </clipPath>
    <radialGradient id="radialGradient234" gradientUnits="userSpaceOnUse" cy="94.63" cx="96.306" gradientTransform="matrix(.79632 -.0764 .06768 1.0906 -11.082 -33.123)" r="34.42">
      <stop id="stop236" style="stop-color:#52ada1" offset="0"/>
      <stop id="stop238" style="stop-color:#4da39a" offset=".21180"/>
      <stop id="stop240" style="stop-color:#408987" offset=".56470"/>
      <stop id="stop242" style="stop-color:#2c6169" offset="1"/>
    </radialGradient>
    <radialGradient id="radialGradient256" gradientUnits="userSpaceOnUse" cy="-84.515" cx="-63.564" gradientTransform="matrix(-.78488 .1548 .12096 .66352 -1.8879 135.24)" r="50.912">
      <stop id="stop258" style="stop-color:#38ada6" offset="0"/>
      <stop id="stop260" style="stop-color:#3fa3a3" offset=".25490"/>
      <stop id="stop262" style="stop-color:#518a99" offset=".68240"/>
      <stop id="stop264" style="stop-color:#627291" offset="1"/>
    </radialGradient>
    <clipPath id="clipPath272">
      <path id="path274" d="m33 72.67h27v41h-27v-41z" inkscape:connector-curvature="0"/>
    </clipPath>
    <mask id="mask276">
      <g id="g278">
        <g id="g280" clip-path="url(#clipPath272)">
          <path id="path282" style="fill:#000000;fill-opacity:.51170" d="m33 72.67h27v41h-27v-41z" inkscape:connector-curvature="0"/>
        </g>
      </g>
    </mask>
    <clipPath id="clipPath288">
      <path id="path290" d="m33 72.67h27v41h-27v-41z" inkscape:connector-curvature="0"/>
    </clipPath>
    <clipPath id="clipPath292">
      <path id="path294" d="m33 73h27v41h-27v-41z" inkscape:connector-curvature="0"/>
    </clipPath>
    <radialGradient id="radialGradient322" gradientUnits="userSpaceOnUse" cy="-90.919" cx="-66.403" gradientTransform="matrix(-.78952 .12912 .13568 .6848 -1.7919 136.56)" r="34.857">
      <stop id="stop324" style="stop-color:#52ada1" offset="0"/>
      <stop id="stop326" style="stop-color:#4da39a" offset=".21180"/>
      <stop id="stop328" style="stop-color:#408987" offset=".56470"/>
      <stop id="stop330" style="stop-color:#2c6169" offset="1"/>
    </radialGradient>
    <clipPath id="clipPath338">
      <path id="path340" d="m46 85.67h23v31h-23v-31z" inkscape:connector-curvature="0"/>
    </clipPath>
    <mask id="mask342">
      <g id="g344">
        <g id="g346" clip-path="url(#clipPath338)">
          <path id="path348" style="fill:#000000;fill-opacity:.51170" d="m46 85.67h23v31h-23v-31z" inkscape:connector-curvature="0"/>
        </g>
      </g>
    </mask>
    <clipPath id="clipPath354">
      <path id="path356" d="m46 85.67h23v31h-23v-31z" inkscape:connector-curvature="0"/>
    </clipPath>
    <clipPath id="clipPath358">
      <path id="path360" d="m46 86h23v31h-23v-31z" inkscape:connector-curvature="0"/>
    </clipPath>
    <clipPath id="clipPath382">
      <path id="path384" d="m24-0.33h46v12h-46v-12z" inkscape:connector-curvature="0"/>
    </clipPath>
    <mask id="mask386">
      <g id="g388">
        <g id="g390" clip-path="url(#clipPath382)">
          <path id="path392" style="fill:#000000;fill-opacity:.46880" d="m24-0.33h46v12h-46v-12z" inkscape:connector-curvature="0"/>
        </g>
      </g>
    </mask>
    <clipPath id="clipPath398">
      <path id="path400" d="m24-0.33h46v12h-46v-12z" inkscape:connector-curvature="0"/>
    </clipPath>
    <clipPath id="clipPath402">
      <path id="path404" d="m24 0h46v12h-46v-12z" inkscape:connector-curvature="0"/>
    </clipPath>
    <linearGradient id="linearGradient432" y2="-110.72" gradientUnits="userSpaceOnUse" x2="130.21" gradientTransform="matrix(-.41376 -.68472 -.68472 .41376 .016311 145.69)" y1="-110.72" x1="-27.754">
      <stop id="stop434" style="stop-color:#242224" offset="0"/>
      <stop id="stop436" style="stop-color:#27252e" offset=".21180"/>
      <stop id="stop438" style="stop-color:#302e49" offset=".5765"/>
      <stop id="stop440" style="stop-color:#32304e" offset=".63530"/>
      <stop id="stop442" style="stop-color:#617d84" offset="1"/>
    </linearGradient>
    <radialGradient id="radialGradient456" gradientUnits="userSpaceOnUse" cy="-11.038" cx="59.623" gradientTransform="matrix(.77512 -.198 .18304 .67688 4.3423 161.68)" r="31.466">
      <stop id="stop458" style="stop-color:#38ada6" offset="0"/>
      <stop id="stop460" style="stop-color:#38a3a2" offset=".2235"/>
      <stop id="stop462" style="stop-color:#3a8999" offset=".59610"/>
      <stop id="stop464" style="stop-color:#3b668c" offset="1"/>
    </radialGradient>
    <radialGradient id="radialGradient478" gradientUnits="userSpaceOnUse" cy="-1.9063" cx="-109.27" gradientTransform="matrix(-.7972 .06696 .04568 .66064 -.0013825 145.42)" r="38.071">
      <stop id="stop480" style="stop-color:#5bb6ad" offset="0"/>
      <stop id="stop482" style="stop-color:#53aca9" offset=".2314"/>
      <stop id="stop484" style="stop-color:#3f929e" offset=".61570"/>
      <stop id="stop486" style="stop-color:#267291" offset="1"/>
    </radialGradient>
    <radialGradient id="radialGradient500" gradientUnits="userSpaceOnUse" cy="115.72" cx="71.101" gradientTransform="matrix(.79936 -.032 .03136 .56648 -8.7264 -12.315)" r="116.43">
      <stop id="stop502" style="stop-color:#2bb8a6" offset="0"/>
      <stop id="stop504" style="stop-color:#2daea3" offset=".2078"/>
      <stop id="stop508" style="stop-color:#32949b" offset=".54120"/>
      <stop id="stop510" style="stop-color:#3a6a8d" offset=".96080"/>
      <stop id="stop512" style="stop-color:#3b668c" offset="1"/>
    </radialGradient>
    <clipPath id="clipPath520">
      <path id="path522" d="m49 48.67h18v16h-18v-16z" inkscape:connector-curvature="0"/>
    </clipPath>
    <mask id="mask524">
      <g id="g526">
        <g id="g528" clip-path="url(#clipPath520)">
          <path id="path530" style="fill:#000000;fill-opacity:.51170" d="m49 48.67h18v16h-18v-16z" inkscape:connector-curvature="0"/>
        </g>
      </g>
    </mask>
    <clipPath id="clipPath536">
      <path id="path538" d="m49 48.67h18v16h-18v-16z" inkscape:connector-curvature="0"/>
    </clipPath>
    <clipPath id="clipPath540">
      <path id="path542" d="m49 49h18v16h-18v-16z" inkscape:connector-curvature="0"/>
    </clipPath>
    <clipPath id="clipPath564">
      <path id="path566" d="m59 118.67h30v20h-30v-20z" inkscape:connector-curvature="0"/>
    </clipPath>
    <mask id="mask568">
      <g id="g570">
        <g id="g572" clip-path="url(#clipPath564)">
          <path id="path574" style="fill:#000000;fill-opacity:.51170" d="m59 118.67h30v20h-30v-20z" inkscape:connector-curvature="0"/>
        </g>
      </g>
    </mask>
    <clipPath id="clipPath580">
      <path id="path582" d="m59 118.67h30v20h-30v-20z" inkscape:connector-curvature="0"/>
    </clipPath>
    <clipPath id="clipPath584">
      <path id="path586" d="m59 119h30v20h-30v-20z" inkscape:connector-curvature="0"/>
    </clipPath>
    <radialGradient id="radialGradient614" gradientUnits="userSpaceOnUse" cy="-2.7603" cx="-30.278" gradientTransform="matrix(-.5924 .53768 .45368 .6648 .012138 145.68)" r="44.193">
      <stop id="stop616" style="stop-color:#38ada6" offset="0"/>
      <stop id="stop618" style="stop-color:#38a3a2" offset=".2235"/>
      <stop id="stop620" style="stop-color:#3a8999" offset=".59610"/>
      <stop id="stop622" style="stop-color:#3b668c" offset="1"/>
    </radialGradient>
    <clipPath id="clipPath630">
      <path id="path632" d="m4 110.67h40v25h-40v-25z" inkscape:connector-curvature="0"/>
    </clipPath>
    <mask id="mask634">
      <g id="g636">
        <g id="g638" clip-path="url(#clipPath630)">
          <path id="path640" style="fill:#000000;fill-opacity:.51170" d="m4 110.67h40v25h-40v-25z" inkscape:connector-curvature="0"/>
        </g>
      </g>
    </mask>
    <clipPath id="clipPath646">
      <path id="path648" d="m4 110.67h40v25h-40v-25z" inkscape:connector-curvature="0"/>
    </clipPath>
    <clipPath id="clipPath650">
      <path id="path652" d="m4 111h40v25h-40v-25z" inkscape:connector-curvature="0"/>
    </clipPath>
    <radialGradient id="radialGradient680" gradientUnits="userSpaceOnUse" cy="32.045" cx="-79.004" gradientTransform="matrix(-.78432 .1576 .14048 .75776 .18870 146.61)" r="45.121">
      <stop id="stop682" style="stop-color:#38ada6" offset="0"/>
      <stop id="stop684" style="stop-color:#38a3a2" offset=".2235"/>
      <stop id="stop686" style="stop-color:#3a8999" offset=".59610"/>
      <stop id="stop688" style="stop-color:#3b668c" offset="1"/>
    </radialGradient>
    <radialGradient id="radialGradient702" gradientUnits="userSpaceOnUse" cy="-14.74" cx="38.55" gradientTransform="matrix(.38568 -.70088 .67296 .35808 20.348 156.5)" r="36.169">
      <stop id="stop704" style="stop-color:#38ada6" offset="0"/>
      <stop id="stop706" style="stop-color:#38a3a2" offset=".2235"/>
      <stop id="stop708" style="stop-color:#3a8999" offset=".59610"/>
      <stop id="stop710" style="stop-color:#3b668c" offset="1"/>
    </radialGradient>
    <radialGradient id="radialGradient724" gradientUnits="userSpaceOnUse" cy="-18.815" cx="-128.67" gradientTransform="matrix(-.7848 .15504 .12768 .6984 -.28778 144.02)" r="78.807">
      <stop id="stop726" style="stop-color:#38ada6" offset="0"/>
      <stop id="stop728" style="stop-color:#38a3a2" offset=".2235"/>
      <stop id="stop730" style="stop-color:#3a8999" offset=".59610"/>
      <stop id="stop732" style="stop-color:#3b668c" offset="1"/>
    </radialGradient>
    <clipPath id="clipPath740">
      <path id="path742" d="m59 72.67h31v47h-31v-47z" inkscape:connector-curvature="0"/>
    </clipPath>
    <mask id="mask744">
      <g id="g746">
        <g id="g748" clip-path="url(#clipPath740)">
          <path id="path750" style="fill:#000000;fill-opacity:.51170" d="m59 72.67h31v47h-31v-47z" inkscape:connector-curvature="0"/>
        </g>
      </g>
    </mask>
    <clipPath id="clipPath756">
      <path id="path758" d="m59 72.67h31v47h-31v-47z" inkscape:connector-curvature="0"/>
    </clipPath>
    <clipPath id="clipPath760">
      <path id="path762" d="m59 73h31v47h-31v-47z" inkscape:connector-curvature="0"/>
    </clipPath>
    <radialGradient id="radialGradient790" gradientUnits="userSpaceOnUse" cy="6.6313" cx="29.02" gradientTransform="matrix(.7868 -.14456 .14848 .7476 -2.0018 135.52)" r="112.45">
      <stop id="stop792" style="stop-color:#38ada6" offset="0"/>
      <stop id="stop794" style="stop-color:#38a3a2" offset=".2235"/>
      <stop id="stop796" style="stop-color:#3a8999" offset=".59610"/>
      <stop id="stop798" style="stop-color:#3b668c" offset="1"/>
    </radialGradient>
    <clipPath id="clipPath806">
      <path id="path808" d="m19 81.67h43v41h-43v-41z" inkscape:connector-curvature="0"/>
    </clipPath>
    <mask id="mask810">
      <g id="g812">
        <g id="g814" clip-path="url(#clipPath806)">
          <path id="path816" style="fill:#000000;fill-opacity:.51170" d="m19 81.67h43v41h-43v-41z" inkscape:connector-curvature="0"/>
        </g>
      </g>
    </mask>
    <clipPath id="clipPath822">
      <path id="path824" d="m19 81.67h43v41h-43v-41z" inkscape:connector-curvature="0"/>
    </clipPath>
    <clipPath id="clipPath826">
      <path id="path828" d="m19 82h43v41h-43v-41z" inkscape:connector-curvature="0"/>
    </clipPath>
  </defs>
  <g id="g10" transform="matrix(1.25 0 0 -1.25 0 182.09)">
    <g id="g12">
      <g id="g14">
        <g id="g16">
          <g id="g22">
            <path id="path38" style="fill-rule:evenodd;fill:url(#radialGradient24)" d="m73.855 96.565c0.696-7.68-1.05-17.774-5.238-30.282-0.961-2.906-2.039-4.359-3.242-4.359-1.25 0-2.359 1.652-3.316 4.961-0.454 1.625-1.133 4.601-2.043 8.922-0.641 3.066-1.332 5.425-2.078 7.078-0.563 1.226-1.774 3.519-3.641 6.879-1.492 2.695-2.348 4.468-2.559 5.32-0.242 0.988 1.879 1.535 6.36 1.641 2.238 0.027 4.492-0.028 6.757-0.16h9z" inkscape:connector-curvature="0"/>
          </g>
        </g>
      </g>
      <g id="g40">
        <g id="g42">
          <g id="g48">
            <path id="path64" style="fill-rule:evenodd;fill:url(#radialGradient50)" d="m29.695 115.92c2.028-1.891 3.934-3.863 5.723-5.918l10.078-17.275c-0.691-0.16-1.879-1.028-3.558-2.598-0.934-0.91-2.403-2.32-4.403-4.242-2.16-1.973-3.89-3.16-5.199-3.559-2.106-0.613-3.398 0.574-3.879 3.559-0.508 3.039-1.441 4.414-2.801 4.121-0.773-0.16-2.215-1.254-4.32-3.281-0.801-0.774-2.145-2.985-4.039-6.641-1.492-2.852-2.762-4.211-3.801-4.078-1.465 0.187-2.664 1.801-3.598 4.84-0.988 3.281-1.148 6.879-0.48 10.801 0.32 1.863 0.32 2.839 0 2.918-0.215 0.027-0.68-0.438-1.402-1.399-1.707-2.32-2.614-2.906-2.719-1.762-0.293 2.614 1.066 7.039 4.078 13.282 3.547 7.332 7.684 12.574 12.402 15.718 1.227 0.828 3.868-0.664 7.918-4.48z" inkscape:connector-curvature="0"/>
          </g>
        </g>
      </g>
      <g id="g66">
        <g id="g68">
          <g id="g74">
            <path id="path90" style="fill-rule:evenodd;fill:url(#radialGradient76)" d="m100.3 127.28c0.746-1.57-0.281-2.023-3.082-1.359l-4.438 1.441 4-1.441c3.172-1.305 6.067-2.852 8.68-4.641 2.934-2.023 5.535-5.133 7.801-9.316 2.023-3.707 3.211-7.055 3.558-10.043 0.243-2.184-1.066-2.344-3.918-0.481-3.734 2.801-6.429 4.641-8.082 5.524-2.293 1.226-5.347 2.012-9.16 2.359-6.265 0.559-9.441 0.84-9.519 0.84-2.508 0.399-4.668 1.133-6.481 2.199-4.187 2.426-7.574 4.614-10.16 6.559-5.254 3.976-7.094 6.773-5.519 8.402 2.375 2.426 4.679 4.239 6.921 5.438 3.094 1.629 6.465 2.347 10.118 2.16 4.109-0.211 8.109-1.078 12-2.598 3.976-1.547 6.402-3.226 7.281-5.043z" inkscape:connector-curvature="0"/>
          </g>
        </g>
      </g>
      <g id="g92">
        <g id="g108" mask="url(#mask100)">
          <g id="g120">
            <g id="g122" clip-path="url(#clipPath112)">
              <g id="g124" transform="translate(0 -0.33)">
                <g id="g128">
                  <g id="g130" clip-path="url(#clipPath116)">
                    <g id="g132">
                      <path id="path134" style="fill-rule:evenodd;fill:#7eb8bd" d="m102.26 119.82c2.211-1.652 4.16-3.214 5.84-4.679-1.309 0.906-2.907 1.89-4.801 2.957-3.762 2.136-7.055 3.586-9.879 4.363-2.508 0.691-5 0.934-7.48 0.719-2.747-0.266-4.801-0.266-6.161 0-1.496 0.293-7.148 1.254-16.961 2.879 0.746 0.8 1.68 1.679 2.801 2.64 2.266 1.895 4.36 3.172 6.281 3.84 1.973 0.695 3.907 1.039 5.797 1.039 1.203 0.028 3.176-0.051 5.922-0.238 2.375-0.106 4.746-0.789 7.121-2.039 1.172-0.641 2.117-1.27 2.84-1.883-2.508-0.184-4.496-0.437-5.961-0.758-1.176-0.265-1.586-0.547-1.242-0.84 0.43-0.347 2.16-0.972 5.203-1.882 2.692-0.797 6.254-2.84 10.68-6.118z" inkscape:connector-curvature="0"/>
                    </g>
                  </g>
                </g>
              </g>
            </g>
          </g>
        </g>
      </g>
      <g id="g136">
        <g id="g138">
          <g id="g144">
            <path id="path156" style="fill-rule:evenodd;fill:url(#radialGradient146)" d="m54.496 134.49c5.172-2.187 6.828-7.242 4.961-15.16-0.691-2.961-1.762-5.695-3.199-8.199-1.414-2.402-2.653-3.734-3.723-4-1.918-0.48-4.305 0.156-7.16 1.918-2.559 1.547-4.359 3.172-5.398 4.879-0.747 1.148-2.653 3.109-5.719 5.883-3.574 3.093-6.016 5.265-7.32 6.519-2 1.867-2.586 3.387-1.762 4.559 0.801 1.176 3.32 2.347 7.562 3.519 3.547 0.989 8.239 1.293 14.078 0.922 2.907-0.187 5.465-0.469 7.68-0.84z" inkscape:connector-curvature="0"/>
          </g>
        </g>
      </g>
      <g id="g158">
        <g id="g160">
          <g id="g166">
            <path id="path178" style="fill-rule:evenodd;fill:url(#radialGradient168)" d="m65.418 109.36c-2.961 2.535-5.215 5.028-6.762 7.481-3.121 4.961-2.492 8.613 1.883 10.961 2.106 1.144 5.316 1.636 9.637 1.476 5.414-0.183 10.133-1.613 14.16-4.277 5.387-3.574 9.746-8.121 13.082-13.641 3.172-5.281 4.961-10.695 5.359-16.238 0.348-4.773-0.105-7.027-1.359-6.762-0.691 0.16-2.16 1.614-4.402 4.36-2.317 2.855-4.957 5.519-7.918 8-4 3.386-7.414 5.308-10.239 5.761-4.375 0.692-7.281 1.184-8.722 1.481-2.668 0.531-4.239 1-4.719 1.398z" inkscape:connector-curvature="0"/>
          </g>
        </g>
      </g>
      <g id="g180">
        <g id="g196" mask="url(#mask188)">
          <g id="g208">
            <g id="g210" clip-path="url(#clipPath200)">
              <g id="g212" transform="translate(0 -0.33)">
                <g id="g216">
                  <g id="g218" clip-path="url(#clipPath204)">
                    <g id="g220">
                      <path id="path222" style="fill-rule:evenodd;fill:#7eb8d6" d="m99.016 101.38c0.562-2.121 0.91-3.914 1.043-5.379-0.247 2.18-2.289 4.731-6.121 7.66-1.735 1.305-4.668 3.199-8.801 5.68-0.856 0.504-2.641 1.16-5.36 1.961-3.496 1.066-5.879 1.84-7.16 2.316-5.894 2.27-8.547 5.094-7.961 8.481 0.481 2.695 3.492 3.816 9.039 3.363 1.364-0.109 2.801-0.309 4.321-0.602 3.093-0.585 6.043-1.933 8.839-4.039 2.586-1.949 4.817-4.347 6.68-7.203 2.481-3.785 4.309-7.863 5.481-12.238z" inkscape:connector-curvature="0"/>
                    </g>
                  </g>
                </g>
              </g>
            </g>
          </g>
        </g>
      </g>
      <g id="g224">
        <g id="g226">
          <g id="g232">
            <path id="path244" style="fill-rule:evenodd;fill:url(#radialGradient234)" d="m73.336 104.52c1.094-0.96 1.801-2.359 2.121-4.199 0.16-0.828 0.266-2.441 0.32-4.84 0.051-1.441 0.172-3.546 0.36-6.32 0.051-2.402-0.11-4.496-0.481-6.281-0.16-0.692-0.402-1.465-0.718-2.32-0.458-1.122-0.868-1.801-1.243-2.04-0.851-0.585-1.453 0.122-1.8 2.122-0.481 2.769-0.747 4.199-0.801 4.277-0.344-1.199-0.785-3.067-1.317-5.598-0.507-2.453-0.949-4.308-1.32-5.562-1.121-3.785-2.266-4.637-3.441-2.559-0.614 1.067-1.051 2.52-1.321 4.36-0.105 0.64-0.265 2.16-0.48 4.562-0.399 4.531-1.387 8.012-2.957 10.438-1.949 2.988-3.121 5.402-3.524 7.242-0.718 3.066 0.336 5.254 3.161 6.558 2.136 0.985 4.402 1.575 6.8 1.762 2.961 0.238 5.176-0.297 6.641-1.602z" inkscape:connector-curvature="0"/>
          </g>
        </g>
      </g>
      <g id="g246">
        <g id="g248">
          <g id="g254">
            <path id="path266" style="fill-rule:evenodd;fill:url(#radialGradient256)" d="m31.738 91.166c0.692 3.734 1.278 6.25 1.758 7.559 1.121 3.121 2.762 5.121 4.922 6 1.625 0.64 3.906 0.613 6.84-0.078 2.824-0.696 5.547-1.817 8.16-3.364 2.746-1.652 4.664-3.41 5.758-5.277 1.226-2.106 1.148-4.027-0.238-5.762-1.149-1.414-3.321-3.117-6.52-5.117-3.496-2.187-5.586-3.617-6.281-4.281-1.625-1.629-3.668-3.906-6.121-6.84-2.879-3.441-4.879-5.762-6-6.961-3.758-4.027-5.344-2.625-4.758 4.199 0.504 7.067 1.332 13.707 2.48 19.922z" inkscape:connector-curvature="0"/>
          </g>
        </g>
      </g>
      <g id="g268">
        <g id="g284" mask="url(#mask276)">
          <g id="g296">
            <g id="g298" clip-path="url(#clipPath288)">
              <g id="g300" transform="translate(0 -0.33)">
                <g id="g304">
                  <g id="g306" clip-path="url(#clipPath292)">
                    <g id="g308">
                      <path id="path310" style="fill-rule:evenodd;fill:#2eb8db" d="m58.098 98.496c-1.067-1.336-3.508-3.039-7.321-5.121-3.629-2-6.468-4.441-8.519-7.32-0.723-1.012-1.586-2.039-2.602-3.078-1.011-1.043-1.879-2.055-2.597-3.043-0.321-0.454-0.977-1.504-1.961-3.161-0.989-1.679-1.629-2.73-1.922-3.16 1.148 5.227 1.801 8.309 1.961 9.242 0.453 2.426 0.718 4.852 0.801 7.282 0.05 3.758 0.132 6.597 0.238 8.519 0.187 3.305 0.656 6.067 1.402 8.278 0.453 1.336 1.227 2.601 2.32 3.8 1.227 1.387 2.493 2.254 3.797 2.602 1.203 0.32 2.375 0.199 3.52-0.359 0.027-0.028 1.027-0.696 3-2 3.762-2.563 6.094-4.321 7-5.282 2.402-2.558 2.695-4.961 0.883-7.199z" inkscape:connector-curvature="0"/>
                    </g>
                  </g>
                </g>
              </g>
            </g>
          </g>
        </g>
      </g>
      <g id="g312">
        <g id="g314">
          <g id="g320">
            <path id="path332" style="fill-rule:evenodd;fill:url(#radialGradient322)" d="m57.418 109.04c2.531-0.828 4.797-2 6.797-3.52 2.668-2.027 3.226-4.425 1.683-7.199-0.828-1.496-2.281-3.226-4.359-5.199-2.402-2.27-3.977-3.91-4.723-4.922-0.32-0.453-0.851-1.199-1.597-2.238-0.746-0.695-1.535-0.656-2.36 0.117-0.906-0.957-2.187-2.504-3.843-4.641-1.571-2.027-2.891-3.078-3.957-3.16-1.282-0.133-2.121 1.137-2.52 3.801-0.801 5.656-0.629 10.801 0.52 15.441 0.613 2.454 1.425 4.668 2.437 6.641 1.336 2.719 2.816 4.438 4.442 5.16 1.894 0.852 4.386 0.758 7.48-0.281z" inkscape:connector-curvature="0"/>
          </g>
        </g>
      </g>
      <g id="g334">
        <g id="g350" mask="url(#mask342)">
          <g id="g362">
            <g id="g364" clip-path="url(#clipPath354)">
              <g id="g366" transform="translate(0 -0.33)">
                <g id="g370">
                  <g id="g372" clip-path="url(#clipPath358)">
                    <g id="g374">
                      <path id="path376" style="fill-rule:evenodd;fill:#2eb8db" d="m67.297 104.93c-1.039-1.918-2.813-3.879-5.32-5.879-2.829-2.266-5.172-3.321-7.039-3.16 0.027 0.375 0.144 0.867 0.359 1.48 0.238 0.719 0.387 1.187 0.441 1.398-1.894-1.199-3.64-3.132-5.242-5.796-2.586-4.297-3.961-6.547-4.121-6.762-0.266 0.746-0.332 1.668-0.199 2.762 0.215 1.253 0.375 2.183 0.48 2.796 0.028 0.188 0.602 2.457 1.719 6.801 0.695 2.75 0.934 5.039 0.723 6.883-0.375 3.492-0.563 5.398-0.563 5.719 0.082 2.32 0.895 3.894 2.442 4.719 1.972 1.039 4.519 1.039 7.64 0 2.453-0.801 4.785-2.04 7-3.719 2.664-2.055 3.227-4.469 1.68-7.242z" inkscape:connector-curvature="0"/>
                    </g>
                  </g>
                </g>
              </g>
            </g>
          </g>
        </g>
      </g>
      <g id="g378">
        <g id="g394" mask="url(#mask386)">
          <g id="g406">
            <g id="g408" clip-path="url(#clipPath398)">
              <g id="g410" transform="translate(0 -0.33)">
                <g id="g414">
                  <g id="g416" clip-path="url(#clipPath402)">
                    <g id="g418">
                      <path id="path420" style="fill-rule:evenodd;fill:#0d5069" d="m69.418 4.215c-0.055-0.051-0.082-0.067-0.082-0.039-1.414-0.348-3.172-0.465-5.277-0.36-1.442 0.055-2.551 0.106-3.321 0.161-1.386 0.05-2.027 0.027-1.922-0.082 0.188-0.161 0.559-0.278 1.122-0.36 1.121-0.32 1.054-0.558-0.2-0.719-0.613-0.082-1.933-0.175-3.961-0.281-0.855-0.078-1.215-0.172-1.082-0.277 0.403-0.242 1.215-0.496 2.442-0.762 0.695-0.133 0.828-0.359 0.398-0.68-0.371-0.293-1.519-0.453-3.437-0.48-1.789-0.027-3.282 0.055-4.481 0.238-3.015 0.481-5.148 0.789-6.402 0.922-2.426 0.266-4.613 0.359-6.559 0.281-0.961-0.054-2.133-0.148-3.519-0.281-1.762-0.187-2.934-0.305-3.52-0.359-2.586-0.215-4.359-0.227-5.32-0.039-0.453 0.316 0.055 0.773 1.519 1.359 2.215 0.801 3.989 1.492 5.321 2.078-1.465-0.32-3.348-0.613-5.641-0.879-0.558 0.106 1.16 0.973 5.16 2.602 0.668 0.265 2.668 1.344 6 3.238 2.403 1.359 4.574 2.145 6.52 2.359 1.734 0.188 3.652-0.238 5.762-1.281 1.171-0.613 3-1.586 5.48-2.918 0.824-0.347 1.598-0.586 2.32-0.718 0.266-0.055 1.039-0.149 2.321-0.282 2.238-0.242 4.382-0.613 6.437-1.121 2.055-0.531 3.359-0.973 3.922-1.32z" inkscape:connector-curvature="0"/>
                    </g>
                  </g>
                </g>
              </g>
            </g>
          </g>
        </g>
      </g>
      <g id="g422">
        <g id="g424">
          <g id="g430">
            <path id="path444" style="fill-rule:evenodd;fill:url(#linearGradient432)" d="m32.738 106.24h2.2l0.519-3.437c0.613-2.774 1.652-5.387 3.121-7.84 1.199-1.977 3.184-5.11 5.957-9.402 2.137-3.868 3.082-7.321 2.84-10.36l-0.117-1.48c2.16 3.547 3.613 6.507 4.359 8.879 0.801 2.507 1.321 4.574 1.559 6.203 0.242 1.73 0.281 3.851 0.121 6.359-0.133 2-0.559 4.25-1.281 6.758-0.024 0.082-0.387 0.961-1.078 2.641-0.614 1.519-0.895 2.308-0.84 2.359 0.746 0.613 1.371 0.801 1.879 0.562 0.347-0.16 0.828-0.722 1.441-1.679 1.359-2.11 2.371-4.723 3.039-7.84 0.613-2.801 0.895-5.684 0.84-8.641 2.984 3.707 4.879 7.774 5.68 12.199 0.238 1.387 0.359 2.735 0.359 4.04l-0.078 1.519 1.48 0.281 0.317-2.32c0.082-2.16-0.25-4.762-1-7.801-0.614-2.531-1.785-5.254-3.52-8.16-0.984-1.652-2.32-3.613-4-5.879-0.398-1.785-1.023-3.988-1.879-6.601-0.215-0.664-1.84-4.934-4.879-12.797-2-5.203-3.175-9.59-3.519-13.16-0.375-4.082-0.016-8.309 1.078-12.684 0.187 2.109 0.734 4.242 1.641 6.402 0.265 0.614 0.961 1.907 2.082 3.879 0.824 1.52 1.359 2.789 1.597 3.801 0.106 0.641 0.176 1.027 0.199 1.16 0.055 0.238 0.122 0.16 0.204-0.242v-1.719c-0.188-1.547-0.684-3.304-1.481-5.281-0.906-2.184-1.469-4.824-1.68-7.918-0.214-3.492 0.051-7.16 0.797-11l0.883-2.762c0.746-2.343 1.399-4.812 1.957-7.398 0.188-0.906 0.469-2.254 0.84-4.039 0-0.055 0.094-0.668 0.281-1.84 0.106-0.746 0.254-1.336 0.442-1.762 0.48-1.172 1.437-1.984 2.879-2.437 0.828-0.27 2.121-0.563 3.878-0.883 0.375-0.106 0.95-0.254 1.723-0.442 0.692-0.21 1.238-0.449 1.637-0.718v-0.117c-2.238 0.028-3.84 0.071-4.797 0.122-1.203 0.054-2.137 0.082-2.801 0.082-1.176 0.027-1.828-0.055-1.961-0.242-0.105-0.106 0.176-0.239 0.84-0.399 1.039-0.265 0.602-0.48-1.32-0.64-1.84-0.161-3.278-0.172-4.321-0.04-1.414 0.133-2.171 0.293-2.277 0.481 0.426-0.668 1.559-1.188 3.399-1.563 1.464-0.293 2.066-0.546 1.8-0.757-1.629-0.161-3.586-0.055-5.879 0.32-2.429 0.531-4.242 0.934-5.441 1.199-2.133 0.426-3.973 0.547-5.519 0.36-0.856-0.106-1.989-0.333-3.403-0.68-1.437-0.348-2.492-0.574-3.16-0.68-1.437-0.242-2.598-0.336-3.477-0.281-0.32 0.238 0.625 0.758 2.84 1.558 2.907 1.016 4.852 1.856 5.84 2.52-0.453 0.027-2.762-0.426-6.922-1.359-0.293 0.082 0.082 0.375 1.121 0.882 0.774 0.372 1.641 0.747 2.598 1.118 0.801 0.32 1.59 0.75 2.363 1.281 0.934 0.641 1.586 1.266 1.957 1.879 1.016 1.629 1.496 3.906 1.442 6.84-0.028 0.695-0.215 2.668-0.559 5.922-0.137 1.414-0.453 3.519-0.961 6.32-0.64 3.707-1 5.851-1.082 6.437-0.773 5.043-0.758 9.856 0.043 14.442 0.481 5.918 1.785 11.492 3.918 16.718 1.762 4.293 2.734 7.586 2.922 9.883 0.211 2.957-0.547 6.184-2.281 9.68-2.348 4.77-4.055 8.52-5.121 11.238-1.547 3.946-2.305 6.934-2.278 8.961z" inkscape:connector-curvature="0"/>
          </g>
        </g>
      </g>
      <g id="g446">
        <g id="g448">
          <g id="g454">
            <path id="path466" style="fill-rule:evenodd;fill:url(#radialGradient456)" d="m58.215 139.2c3.363-3.734 5.094-7.719 5.203-11.961 0.051-2.105-0.227-3.84-0.84-5.199-0.375-0.695-2.254-0.52-5.64 0.52-3.52 1.093-6.04 2.441-7.563 4.039-1.652 1.679-2.918 3.882-3.797 6.601-0.961 2.906-1.629 4.602-2 5.078-1.308 1.735-2.773 2.856-4.402 3.364-1.094 0.343-1.598 0.718-1.52 1.117 0.188 0.883 0.989 1.601 2.403 2.16 1.437 0.586 3.144 0.828 5.117 0.723 5.039-0.27 9.386-2.415 13.039-6.442z" inkscape:connector-curvature="0"/>
          </g>
        </g>
      </g>
      <g id="g468">
        <g id="g470">
          <g id="g476">
            <path id="path488" style="fill-rule:evenodd;fill:url(#radialGradient478)" d="m72.375 120.76c-2.266-1.067-5.52-1.52-9.758-1.36-4.082 0.161-6.187 0.668-6.32 1.52-0.16 1.629 0.172 3.508 1 5.641 1.707 4.265 5.078 7.707 10.121 10.32 5.492 2.828 11.023 3.465 16.598 1.922 2.214-0.614 4-1.481 5.359-2.602 1.309-1.066 1.895-2.094 1.762-3.078-0.055-0.402-0.254-0.629-0.602-0.684l-1.476 0.043c-1.95 0.079-3.961-0.519-6.043-1.8-0.586-0.348-1.934-1.856-4.039-4.52-1.973-2.453-4.172-4.254-6.602-5.402z" inkscape:connector-curvature="0"/>
          </g>
        </g>
      </g>
      <g id="g490">
        <g id="g492">
          <g id="g498">
            <path id="path514" style="fill-rule:evenodd;fill:url(#radialGradient500)" d="m52.336 61.443c-0.801 0.454-1.277 0.735-1.438 0.84-0.668 0.481-0.988 0.922-0.96 1.321 0.078 1.121 1.226 1.734 3.437 1.839 1.734 0.082 3.176-0.066 4.32-0.437 3.813-1.227 7.016-3.43 9.602-6.602 1.281-1.519 2.215-3.105 2.801-4.757 0.613-1.735 0.757-3.309 0.441-4.723-0.109-0.504-0.574-0.184-1.402 0.961-0.668 0.988-0.934 0.773-0.801-0.641 0.16-1.867-0.094-3.531-0.758-5-0.64-1.359-1.359-2.051-2.16-2.078-0.559-0.027-1.188 0.664-1.879 2.078-0.855 1.762-1.48 2.84-1.883 3.242-1.039 1.039-1.758 1.614-2.16 1.719-0.746 0.215-1.32-0.375-1.719-1.762-0.398-1.359-1.148-1.851-2.238-1.48-0.695 0.242-1.574 0.867-2.641 1.883-1.121 1.066-1.789 1.679-2 1.84-0.75 0.64-1.453 1.093-2.121 1.359-0.718 0.293-1.48 0.441-2.281 0.441-1.758 0.051-3 0.36-3.719 0.918-0.906 0.719-0.867 1.828 0.121 3.321 1.094 1.652 2.454 2.972 4.079 3.961 1.652 1.039 3.441 1.621 5.359 1.757z" inkscape:connector-curvature="0"/>
          </g>
        </g>
      </g>
      <g id="g516">
        <g id="g532" mask="url(#mask524)">
          <g id="g544">
            <g id="g546" clip-path="url(#clipPath536)">
              <g id="g548" transform="translate(0 -0.33)">
                <g id="g552">
                  <g id="g554" clip-path="url(#clipPath540)">
                    <g id="g556">
                      <path id="path558" style="fill-rule:evenodd;fill:#2eb8db" d="m66.617 54.414c0.481-2 0.465-3.453-0.039-4.359-0.535-0.957-1.082-1-1.64-0.117-0.586 1.25-1.016 2.023-1.282 2.32-0.961 1.066-2.226 1.664-3.801 1.797-1.917-0.024-3.371-0.024-4.359 0-1.68 0.027-2.293 0.375-1.84 1.043 0.328 0.433 0.801 0.679 1.422 0.738l-1.941 0.102c-1.547 0.078-2.625 0.277-3.239 0.597-0.589 0.32-0.816 0.735-0.683 1.242 0.215 1.012 1.137 1.758 2.762 2.239 2.293 0.718 3.48 1.105 3.558 1.16-0.023 0.054-0.254 0.347-0.68 0.879-0.293 0.375-0.425 0.695-0.398 0.961 0.051 0.507 0.52 0.828 1.398 0.961 0.696 0.105 1.336 0.093 1.922-0.039 1.121-0.243 2.438-0.95 3.961-2.122 1.438-1.121 2.504-2.214 3.2-3.281 0.691-1.039 1.253-2.414 1.679-4.121z" inkscape:connector-curvature="0"/>
                    </g>
                  </g>
                </g>
              </g>
            </g>
          </g>
        </g>
      </g>
      <g id="g560">
        <g id="g576" mask="url(#mask568)">
          <g id="g588">
            <g id="g590" clip-path="url(#clipPath580)">
              <g id="g592" transform="translate(0 -0.33)">
                <g id="g596">
                  <g id="g598" clip-path="url(#clipPath584)">
                    <g id="g600">
                      <path id="path602" style="fill-rule:evenodd;fill:#7eb8d6" d="m87.938 136.25c0.132-0.051 0.32-0.199 0.558-0.438-3.547 0.774-6.973-0.015-10.281-2.359-2.664-1.895-5.067-4.602-7.199-8.121-1.039-1.789-2.184-3.148-3.438-4.082-1.601-1.145-3.281-1.52-5.043-1.117-1.68 0.371-2.719 1.172-3.117 2.398-0.348 1.039-0.203 2.332 0.437 3.879 0.055 0.215 0.137 0.402 0.243 0.563 1.093 2.32 2.691 4.359 4.8 6.117 2 1.679 4.266 2.961 6.797 3.84 2.375 0.828 4.977 1.254 7.801 1.281 3.227 0.027 5.801-0.52 7.719-1.641 0.137-0.078 0.375-0.183 0.723-0.32z" inkscape:connector-curvature="0"/>
                    </g>
                  </g>
                </g>
              </g>
            </g>
          </g>
        </g>
      </g>
      <g id="g604">
        <g id="g606">
          <g id="g612">
            <path id="path624" style="fill-rule:evenodd;fill:url(#radialGradient614)" d="m51.617 115.08c-4.426-2.719-6.707-4.117-6.84-4.199-2.402-1.254-4.933-2.012-7.601-2.281-1.918-0.184-4.438-1-7.559-2.438-3.387-1.519-5.879-2.426-7.48-2.723-1.227-0.238-2.188-0.343-2.879-0.316-1.309 0.027-2.067 0.465-2.281 1.316-0.161 0.668 0.32 1.641 1.441 2.922 1.387 1.602 2.144 2.547 2.277 2.84-4.879-1.492-9.039-2.625-12.48-3.398-6.586-1.469-9.211-0.524-7.879 2.84 1.226 3.066 3.734 5.933 7.519 8.597 2.161 1.414 3.774 2.481 4.84 3.199 1.922 1.254 3.442 2.387 4.563 3.403-1.016-0.215-1.762-0.375-2.242-0.481-0.907-0.16-1.653-0.133-2.239 0.078-1.336 0.641 0.215 2.414 4.641 5.321 3.891 2.535 7.199 4.32 9.918 5.363 4.187 1.598 8.547 2.238 13.082 1.918 5.039-0.348 8.277-1.906 9.719-4.68 0.695-1.386 2.281-2.961 4.761-4.718 1.918-1.387 2.985-3.309 3.2-5.762 0.05-0.586-0.774-1.735-2.481-3.442-1.574-1.57-2.906-2.691-4-3.359z" inkscape:connector-curvature="0"/>
          </g>
        </g>
      </g>
      <g id="g626">
        <g id="g642" mask="url(#mask634)">
          <g id="g654">
            <g id="g656" clip-path="url(#clipPath646)">
              <g id="g658" transform="translate(0 -0.33)">
                <g id="g662">
                  <g id="g664" clip-path="url(#clipPath650)">
                    <g id="g666">
                      <path id="path668" style="fill-rule:evenodd;fill:#7eb8de" d="m40.855 119.66c-1.144-0.187-2.597-0.133-4.359 0.16-1.812 0.348-3.066 0.559-3.758 0.641-1.761 0.184-4.054-0.082-6.883-0.801-4.48-1.121-6.746-1.679-6.796-1.679-2.508-0.454-5.055-1.282-7.641-2.481-2.563-1.148-4.856-2.535-6.883-4.16 1.789 2.613 4.707 5.519 8.762 8.719 1.094 0.879 3.293 2.867 6.601 5.961 2.664 2.507 4.946 4.375 6.84 5.597 2.746 1.817 5.371 3.016 7.879 3.602 3.36 0.801 6.012 0.308 7.961-1.481 1.25-1.144 1.68-2.371 1.277-3.679-0.371-1.305-1.039-1.598-2-0.879-0.957 0.691-2.386 1.121-4.277 1.281-2.109 0.184-4.055-0.066-5.84-0.762-1.652-0.64-2.894-1.414-3.722-2.32-0.852-0.961-0.879-1.238-0.078-0.84 0.48 0.238 2.503 0.547 6.078 0.922 3.629 0.398 4.961 0.477 4 0.238-0.719-0.215-1.414-0.558-2.078-1.039l-0.801-0.679 2.16 0.16c1.68-0.028 3.078-0.348 4.199-0.961 1.309-0.746 1.879-1.801 1.723-3.16-0.16-1.336-0.949-2.121-2.364-2.36z" inkscape:connector-curvature="0"/>
                    </g>
                  </g>
                </g>
              </g>
            </g>
          </g>
        </g>
      </g>
      <g id="g670">
        <g id="g672">
          <g id="g678">
            <path id="path690" style="fill-rule:evenodd;fill:url(#radialGradient680)" d="m69.258 131.01c2.398 0.211 3.719-0.961 3.957-3.52-0.078-0.668-0.985-1.093-2.719-1.281-1.891-0.187-3.027-0.652-3.398-1.398 0.398-0.27 1.867-0.242 4.398 0.078 2.27-0.106 3.215-1.332 2.84-3.68-0.106-0.613-1.879-1.215-5.32-1.801-1.864-0.32-3.879-0.586-6.039-0.8-0.481-0.051-1.36-0.184-2.641-0.399-1.117-0.187-1.957-0.293-2.52-0.32-1.066 0-1.824 0.254-2.277 0.762-0.586 0.585-0.801 1.613-0.641 3.078 0.028 0.265 0.278 1.105 0.758 2.519 0.403 1.121 0.52 1.961 0.36 2.52-0.157 0.586-0.852 1.414-2.078 2.48-1.04 0.906-1.52 1.895-1.442 2.961 0.082 1.149 0.68 2.012 1.801 2.602 1.148 0.636 2.094 0.519 2.84-0.364 0.16-0.183 0.414-0.691 0.761-1.519 0.372-0.692 0.758-0.973 1.161-0.84 0.691 0.242 0.691 1.895 0 4.961-0.293 1.039-0.493 1.84-0.602 2.398-0.16 1.016-0.039 1.817 0.359 2.403 0.403 0.558 0.911 0.867 1.52 0.918 0.613 0.054 1.199-0.117 1.762-0.52 1.812-1.332 2.625-3.437 2.441-6.32-0.109-1.598-0.363-3.973-0.762-7.117 1.813 1.332 3.641 2.066 5.481 2.199z" inkscape:connector-curvature="0"/>
          </g>
        </g>
      </g>
      <g id="g692">
        <g id="g694">
          <g id="g700">
            <path id="path712" style="fill-rule:evenodd;fill:url(#radialGradient702)" d="m36.016 129.88c1.894 0.398 3.656 0.64 5.281 0.719 2.933 0.136 5.508-0.278 7.719-1.239 5.519-2.375 8.656-5.054 9.402-8.039 0.453-1.789-0.227-3.336-2.043-4.64-1.012-0.719-2.664-1.481-4.957-2.282-1.656-0.613-3.52-0.691-5.602-0.238-1.867 0.426-3.652 1.227-5.359 2.399-0.586 0.375-1.254 0.972-2 1.8-0.961 1.067-1.574 1.719-1.84 1.961-1.015 0.906-2.347 1.453-4 1.641-0.988 0.078-2.492 0.023-4.519-0.16-1.95-0.188-3.028-0.282-3.243-0.282-1.25 0.079-1.652 0.559-1.199 1.442 0.856 1.703 2.668 3.226 5.442 4.558 2.105 1.04 4.414 1.825 6.918 2.36z" inkscape:connector-curvature="0"/>
          </g>
        </g>
      </g>
      <g id="g714">
        <g id="g716">
          <g id="g722">
            <path id="path734" style="fill-rule:evenodd;fill:url(#radialGradient724)" d="m73.496 121.33c4.961-1.574 9.055-5.148 12.281-10.722 5.973-10.211 7.653-22.438 5.039-36.68-0.933-5.172-1.664-8.465-2.199-9.879-0.824-2.293-1.812-2.762-2.961-1.398-0.613 0.691-1.597 3.48-2.957 8.359-1.574 5.492-3.695 10.453-6.359 14.879-2.028 3.414-4.52 6.762-7.481 10.039-3.043 3.176-5.054 5.281-6.043 6.32-2.906 2.668-5.117 4.746-6.64 6.242-2.774 2.692-3.985 4.575-3.637 5.641 0.426 1.332 1.504 2.652 3.238 3.957 1.813 1.359 4.055 2.453 6.719 3.281 3.68 1.121 7.348 1.106 11-0.039z" inkscape:connector-curvature="0"/>
          </g>
        </g>
      </g>
      <g id="g736">
        <g id="g752" mask="url(#mask744)">
          <g id="g764">
            <g id="g766" clip-path="url(#clipPath756)">
              <g id="g768" transform="translate(0 -0.33)">
                <g id="g772">
                  <g id="g774" clip-path="url(#clipPath760)">
                    <g id="g776">
                      <path id="path778" style="fill-rule:evenodd;fill:#7eb8d6" d="m82.496 112.34c1.895-2.746 3.281-6.176 4.16-10.281 0.535-2.399 1.16-6.067 1.879-11 1.414-7.575 1.32-13.282-0.277-17.121-0.426 0.882-0.774 2-1.043 3.363-0.238 1.547-0.438 2.703-0.598 3.476-1.679 7.602-4.801 14.297-9.359 20.082-1.496 1.868-3.16 3.493-5 4.879-1.442 1.094-3.414 2.336-5.922 3.723-4.481 2.398-6.641 4.691-6.481 6.879 0.11 1.652 1.055 2.492 2.84 2.519 1.309 0 2.762-0.398 4.364-1.199 1.199-0.613 2.73-1.574 4.597-2.883 1.989-1.41 3.196-2.496 3.621-3.257-0.777 1.839-1.304 3.312-1.582 4.418-0.531 2.187-0.023 3.226 1.52 3.121 0.347-0.055 0.683-0.145 1-0.282 1.789-0.824 3.883-2.972 6.281-6.437z" inkscape:connector-curvature="0"/>
                    </g>
                  </g>
                </g>
              </g>
            </g>
          </g>
        </g>
      </g>
      <g id="g780">
        <g id="g782">
          <g id="g788">
            <path id="path800" style="fill-rule:evenodd;fill:url(#radialGradient790)" d="m50.375 123.2c-0.051-0.293 1.215-0.039 3.801 0.762 3.172 0.531 6-0.016 8.48-1.641 2.559-1.679 3.801-4.265 3.719-7.761-0.078-3.708-1.758-6.868-5.039-9.481-2.828-2.238-5.012-3.852-6.559-4.84-1.308-0.851-3.933-2.347-7.879-4.48-3.121-1.703-7.363-5.012-12.722-9.918-5.574-5.121-9.211-9.16-10.918-12.121-1.922-3.36-3.668-4.465-5.242-3.321-1.547 1.121-2.106 3.563-1.68 7.321 0.348 3.254 1.309 7.734 2.879 13.441 1.121 4 2.734 9.277 4.844 15.84 1.863 5.785 4.023 10.453 6.476 14 3.094 4.504 6.442 6.918 10.043 7.238 2.559 0.215 4.863-0.133 6.918-1.039 2.266-0.988 3.227-2.32 2.879-4z" inkscape:connector-curvature="0"/>
          </g>
        </g>
      </g>
      <g id="g802">
        <g id="g818" mask="url(#mask810)">
          <g id="g830">
            <g id="g832" clip-path="url(#clipPath822)">
              <g id="g834" transform="translate(0 -0.33)">
                <g id="g838">
                  <g id="g840" clip-path="url(#clipPath826)">
                    <g id="g842">
                      <path id="path844" style="fill-rule:evenodd;fill:#2eb8db" d="m54.336 107.18c-2.133-1.414-5.172-3.016-9.121-4.801-8.453-3.762-14.492-7.359-18.117-10.801-2.403-2.293-4.989-5.386-7.762-9.277 0.508 1.172 1.039 2.598 1.602 4.277 1.144 3.387 1.933 6.403 2.359 9.039 0.641 4.188 1.426 8 2.359 11.442 1.653 6 3.535 9.972 5.641 11.922 1.039 0.984 2.16 1.425 3.359 1.32 1.176-0.188 0.989-1.547-0.558-4.082-1.547-2.586-2.133-3.934-1.762-4.039 0.879 0.426 2.613 2.359 5.199 5.801 2.16 2.906 4.297 4.277 6.403 4.117 0.746-0.239 0.531-1.039-0.641-2.399-1.574-1.574-2.586-2.652-3.039-3.238-1.414-1.895-2.469-3.32-3.16-4.281-1.2-1.653-2.16-3.133-2.883-4.442-1.625-2.984-2.613-4.812-2.957-5.48-0.508-1.066-0.547-1.399-0.121-1 1.625 1.519 4.535 4.762 8.718 9.723 3.547 4.238 6.602 7.332 9.161 9.277 1.359 1.066 2.707 1.828 4.043 2.281 1.703 0.586 3.183 0.574 4.437-0.039 1.629-0.801 2.719-2.027 3.281-3.68 0.532-1.601 0.465-3.254-0.199-4.961-0.883-2.293-2.961-4.519-6.242-6.679z" inkscape:connector-curvature="0"/>
                    </g>
                  </g>
                </g>
              </g>
            </g>
          </g>
        </g>
      </g>
    </g>
  </g>
<metadata><rdf:RDF><cc:Work><dc:format>image/svg+xml</dc:format><dc:type rdf:resource="http://purl.org/dc/dcmitype/StillImage"/><cc:license rdf:resource="http://creativecommons.org/licenses/publicdomain/"/><dc:publisher><cc:Agent rdf:about="http://openclipart.org/"><dc:title>Openclipart</dc:title></cc:Agent></dc:publisher></cc:Work><cc:License rdf:about="http://creativecommons.org/licenses/publicdomain/"><cc:permits rdf:resource="http://creativecommons.org/ns#Reproduction"/><cc:permits rdf:resource="http://creativecommons.org/ns#Distribution"/><cc:permits rdf:resource="http://creativecommons.org/ns#DerivativeWorks"/></cc:License></rdf:RDF></metadata></svg>
