<?xml version="1.0"?>
<svg xmlns:rdf="http://www.w3.org/1999/02/22-rdf-syntax-ns#" xmlns="http://www.w3.org/2000/svg" xmlns:cc="http://creativecommons.org/ns#" xmlns:dc="http://purl.org/dc/elements/1.1/" xmlns:svg="http://www.w3.org/2000/svg" id="svg2" viewBox="0 0 332.97 349" version="1.0">
  <g id="layer1" transform="translate(-166.41 -286.9)">
    <g id="g3201" stroke="#000" fill="none" transform="matrix(1 0 0 .95316 0 29.78)">
      <path id="path2398" stroke-width="4.9346" d="m181.7 369.54c33.01 25.44 63.91 53.77 89.59 85.83 14.18 17.7 24.51 37.86 35.68 57.31 6.2 10.78 12.36 29.99 22.96 28.7 55.47-24.05 122.68-72.33 165.77-112.96 4.42-4.61-3.74-9-8.13-11.93-13.7-9.14-29.38-15.64-42.69-25.52-13.51-10.03-28.55-18.6-40.66-30.05-19.63-18.58-41.47-45.91-51.88-61.51s-6.96-27.95-18.02-27.09c-25.89 2.02-52.92 17.86-78.05 29.77-26.88 12.75-54.09 25.39-78.15 42.47-3.44 2.45-10.89 6.88-7.24 11.23 3.76 4.47 6.15 10.15 10.82 13.75z"/>
      <path id="path3170" stroke-width="5" d="m170.01 356.53c-0.93 33.04-2.27 67.04 0.48 98.2 0.46 5.22 5.19 8.47 9.28 10.63 9.37 4.96 18.76 9.64 26.54 16.83 12.6 11.66 25.35 23.64 35.19 37.39 14.3 19.98 25.96 41.64 37.32 63.21 7.29 13.83 12.6 29.52 24.1 40.54 5.41 5.18 12.79 7.65 20.47 9.41 6.53 1.49 13.54 0.08 18.99-2.79 40.58-21.38 79.82-45.81 119.73-68.71-0.49-6.62-4.18-14.77-1.46-19.86 2.64-4.95 12.15-12.54 15.2-11.23 2.8 1.2 2.32 12.83 2.32 18.76 6.09-4.79 12.17-9.58 18.26-14.37v-106.12"/>
      <path id="path3172" stroke-width="4.985" d="m327.02 542.19l0.72 90.16"/>
      <path id="path3176" stroke-width="5.3086" transform="matrix(.69357 -.66092 .69391 .61780 -274.44 480.87)" d="m436.43 553.79a36.786 31.429 0 1 1 -73.57 0 36.786 31.429 0 1 1 73.57 0z"/>
      <path id="path3178" stroke-width="4.9346" d="m224.78 392.82s55.39-32.09 70.1-39.03c14.72-6.93 18.09-8.15 26.29-10.27 1.5-0.38 5.11-0.68 5.11-0.68l51.12 37.65 43.08 35.61 33.96 30.8"/>
      <path id="path3180" stroke-width="3" d="m270.79 368.17c36.8 39.25 81.25 80.9 127.79 120.15"/>
      <path id="path3182" stroke-width="3" d="m252.24 380.09c36.08 39.84 78.7 81.83 124.51 121.82"/>
      <path id="path3186" stroke-width="3.1024" transform="matrix(1.006 -.19052 .16772 .89768 -83.325 117.32)" d="m399.29 399.86a25.714 15.357 0 1 1 -51.43 0 25.714 15.357 0 1 1 51.43 0z"/>
      <path id="path3188" stroke-width="3" d="m333.55 409.54l1.92 11.45c1.27 7.64 14.16 11.6 28.44 8.89 14.28-2.7 24.72-11.07 23.29-18.68l-1.91-11.35"/>
      <path id="path3191" stroke-width="3" d="m370.27 401.06c-21.94 6.78-21.94 6.78-21.94 6.78"/>
      <path id="path3193" stroke-width="3" d="m356.05 397.21l6.46 15.01"/>
      <path id="path3195" stroke-width="4" d="m201.6 370.93c28.48 22.95 55 48.44 76.93 77.07 12.18 15.91 25.15 33.98 34.75 51.45 5.31 9.68 11.3 29.14 19.69 25.77 48.34-19.39 107.44-61.13 144.44-97.61 3.79-4.14-5.42-5.27-13.18-10.69s-40.65-27.63-52.15-36.43c-30.53-23.35-45.29-43.18-66.03-74.46-5.28-7.96-8.04-21.22-17.54-20.45-40.82 11.86-96.76 35.53-132.05 58.09-2.95 2.19-14.51 8.11-11.38 12.01 3.23 4.02 12.5 12.01 16.52 15.25z"/>
      <path id="path3197" stroke-width="3" d="m325.19 342.66l4.99-56.99"/>
      <path id="path3199" stroke-width="3" d="m476.34 552.8l-17.1-8.46"/>
    </g>
  </g>
  <metadata>
    <rdf:RDF>
      <cc:Work>
        <dc:format>image/svg+xml</dc:format>
        <dc:type rdf:resource="http://purl.org/dc/dcmitype/StillImage"/>
        <cc:license rdf:resource="http://creativecommons.org/licenses/publicdomain/"/>
        <dc:publisher>
          <cc:Agent rdf:about="http://openclipart.org/">
            <dc:title>Openclipart</dc:title>
          </cc:Agent>
        </dc:publisher>
        <dc:title>Pencil sharpener</dc:title>
        <dc:date>2010-06-15T02:38:44</dc:date>
        <dc:description>A pencil sharpener.</dc:description>
        <dc:source>http://openclipart.org/detail/66817/pencil-sharpener-by-laobc</dc:source>
        <dc:creator>
          <cc:Agent>
            <dc:title>laobc</dc:title>
          </cc:Agent>
        </dc:creator>
        <dc:subject>
          <rdf:Bag>
            <rdf:li>black</rdf:li>
            <rdf:li>black and white</rdf:li>
            <rdf:li>clip art</rdf:li>
            <rdf:li>clipart</rdf:li>
            <rdf:li>coloring book</rdf:li>
            <rdf:li>line art</rdf:li>
            <rdf:li>office</rdf:li>
            <rdf:li>pencil</rdf:li>
            <rdf:li>school</rdf:li>
          </rdf:Bag>
        </dc:subject>
      </cc:Work>
      <cc:License rdf:about="http://creativecommons.org/licenses/publicdomain/">
        <cc:permits rdf:resource="http://creativecommons.org/ns#Reproduction"/>
        <cc:permits rdf:resource="http://creativecommons.org/ns#Distribution"/>
        <cc:permits rdf:resource="http://creativecommons.org/ns#DerivativeWorks"/>
      </cc:License>
    </rdf:RDF>
  </metadata>
</svg>
