<?xml version="1.0" encoding="UTF-8" standalone="no"?>
<!-- Created with Inkscape (http://www.inkscape.org/) -->

<svg
   xmlns:dc="http://purl.org/dc/elements/1.1/"
   xmlns:cc="http://creativecommons.org/ns#"
   xmlns:rdf="http://www.w3.org/1999/02/22-rdf-syntax-ns#"
   xmlns:svg="http://www.w3.org/2000/svg"
   xmlns="http://www.w3.org/2000/svg"
   xmlns:sodipodi="http://sodipodi.sourceforge.net/DTD/sodipodi-0.dtd"
   xmlns:inkscape="http://www.inkscape.org/namespaces/inkscape"
   id="svg3406"
   version="1.1"
   inkscape:version="0.91 r13725"
   width="493.48593"
   height="700.89618"
   viewBox="0 0 493.48593 700.89618"
   sodipodi:docname="silhouette-danse-05.svg">
  <title
     id="title3334">Silhouette Danse 05</title>
  <metadata
     id="metadata3412">
    <rdf:RDF>
      <cc:Work
         rdf:about="">
        <dc:format>image/svg+xml</dc:format>
        <dc:type
           rdf:resource="http://purl.org/dc/dcmitype/StillImage" />
        <dc:title>Silhouette Danse 05</dc:title>
        <cc:license
           rdf:resource="http://creativecommons.org/publicdomain/zero/1.0/" />
        <dc:date>2017-02-08</dc:date>
        <dc:creator>
          <cc:Agent>
            <dc:title>JLouis</dc:title>
          </cc:Agent>
        </dc:creator>
        <dc:rights>
          <cc:Agent>
            <dc:title>Domaine pubic</dc:title>
          </cc:Agent>
        </dc:rights>
        <dc:publisher>
          <cc:Agent>
            <dc:title>inkscape</dc:title>
          </cc:Agent>
        </dc:publisher>
        <dc:subject>
          <rdf:Bag>
            <rdf:li>Silhouette</rdf:li>
            <rdf:li>dance</rdf:li>
            <rdf:li>dancer</rdf:li>
            <rdf:li>woman</rdf:li>
            <rdf:li>danse</rdf:li>
            <rdf:li>danseuse</rdf:li>
            <rdf:li>femme</rdf:li>
            <rdf:li></rdf:li>
          </rdf:Bag>
        </dc:subject>
        <dc:description>Silhouette of dancer - Silhouette de danseuse.</dc:description>
      </cc:Work>
      <cc:License
         rdf:about="http://creativecommons.org/publicdomain/zero/1.0/">
        <cc:permits
           rdf:resource="http://creativecommons.org/ns#Reproduction" />
        <cc:permits
           rdf:resource="http://creativecommons.org/ns#Distribution" />
        <cc:permits
           rdf:resource="http://creativecommons.org/ns#DerivativeWorks" />
      </cc:License>
    </rdf:RDF>
  </metadata>
  <defs
     id="defs3410" />
  <sodipodi:namedview
     pagecolor="#ffffff"
     bordercolor="#666666"
     borderopacity="1"
     objecttolerance="10"
     gridtolerance="10"
     guidetolerance="10"
     inkscape:pageopacity="0"
     inkscape:pageshadow="2"
     inkscape:window-width="995"
     inkscape:window-height="702"
     id="namedview3408"
     showgrid="false"
     inkscape:zoom="0.75838926"
     inkscape:cx="143.90627"
     inkscape:cy="561.81053"
     inkscape:window-x="247"
     inkscape:window-y="15"
     inkscape:window-maximized="0"
     inkscape:current-layer="svg3406"
     fit-margin-top="10"
     fit-margin-right="10"
     fit-margin-left="10"
     fit-margin-bottom="10" />
  <path
     style="fill:#932091"
     d="m 198.33331,685.93542 c -20.37607,-23.09806 -21.72881,-55.32408 -10.38356,-82.74853 2.04605,-30.003 0.9264,-60.93886 10.55315,-89.71365 -2.68714,-29.54079 7.04926,-56.93259 18.80322,-83.51049 8.06521,-19.88932 15.64892,-39.97268 22.45675,-60.32829 -22.35019,-39.81286 -49.35775,-77.32198 -63.31363,-121.27334 -7.77661,-17.34197 -5.04772,-38.56329 -3.7271,-55.5729 -34.34482,37.15581 -48.93913,88.21518 -85.273689,123.90132 -14.110505,8.10057 -53.077418,5.80633 -55.017784,-7.51404 17.834036,-10.88857 -39.024689,7.67287 -17.872659,-12.22976 23.990936,-9.49284 65.247006,19.40658 72.77565,-18.12912 16.558162,-27.78497 16.922822,-64.17984 43.101472,-85.94657 16.27749,-23.32918 39.63976,-48.40125 40.20973,-77.74227 9.38371,-14.41084 27.62652,-34.177143 46.47009,-26.430421 19.5013,13.561411 53.27061,4.359302 51.44013,-20.337105 6.75134,-22.091124 18.23019,-43.760566 39.94089,-56.391804 32.89947,-11.35414772 72.70122,26.622883 51.78341,59.107904 -19.64786,22.287845 -20.94768,35.322716 -5.04035,58.934816 3.08415,9.06851 4.03877,21.82484 0.71189,18.01236 2.70074,8.70701 -6.62478,-4.82086 0.27609,10.95722 0.99717,10.17317 9.62249,8.90081 -3.56417,10.98991 2.50488,8.23055 1.3154,26.21927 -6.61071,19.08366 -0.60942,33.99402 25.87999,58.95328 41.44991,86.53266 12.71331,24.95102 11.35675,67.98077 38.24186,79.30205 12.76761,-3.45795 51.23681,-8.88599 49.56796,4.53745 -9.06727,2.16647 -30.61134,1.55667 -10.82324,7.04821 -17.72087,13.64442 -55.94287,17.48727 -69.28302,-6.77919 -24.65973,-35.76271 -37.32495,-79.8851 -66.67994,-112.06404 -11.72659,-10.9483 -22.89297,-9.71748 -24.12783,-18.99328 3.5e-4,-26.43313 -25.80096,-32.23446 -30.60929,-3.83272 1.54889,30.27758 40.13089,38.51742 51.48784,64.60599 12.25023,21.25348 7.10938,47.61028 -2.94535,68.70466 19.5193,23.21912 28.89385,53.11511 50.54408,74.8321 18.73727,25.58214 49.32477,41.98176 60.24643,73.42454 14.7262,24.99263 30.00924,49.28813 47.30517,72.513 14.83352,35.82117 -39.0929,21.68528 -52.88342,43.42136 -9.88928,8.46844 -26.89072,6.56058 -38.28815,4.00845 3.19368,-18.04597 42.15176,-21.06217 43.24438,-47.69952 -7.90065,-25.41047 -31.48916,-43.53237 -47.87466,-64.13789 -28.82378,-30.17997 -57.50885,-60.8207 -89.02387,-88.15543 -9.16837,-13.19729 -13.48787,2.96258 -19.27878,10.21391 -18.56063,24.78264 -30.08704,54.164 -30.25992,85.36705 -1.88901,36.69173 -23.62753,68.32597 -34.29054,102.3836 -6.01126,20.98927 10.7834,35.15156 24.42971,47.78771 1.78469,17.15725 -27.87895,24.14762 -37.86815,13.86043 z"
     id="path3416"
     inkscape:connector-curvature="0" />
</svg>
